<svg width="301" height="279" viewBox="0 0 301 279" fill="none" xmlns="http://www.w3.org/2000/svg">
<rect width="301" height="279" fill="white"/>
<path d="M142.209 29.5258C201.833 29.5258 250.209 80.3179 250.209 143.026C250.209 205.734 201.833 256.526 142.209 256.526C82.5857 256.526 34.2095 205.734 34.2095 143.026C34.2095 80.3179 82.5857 29.5258 142.209 29.5258Z" stroke="#EA9191"/>
<path d="M121.899 90.7631C122.948 71.3398 117.181 48.8497 117.181 48.8497C115.783 44.5902 111.938 36.0694 107.22 35.0489C102.502 34.0284 33.8216 66.7378 24.3851 154.656C14.9487 242.573 107.312 255.9 117.181 249.727C127.049 243.555 119.864 230.293 117.181 220.081C117.181 220.081 122.948 210.881 121.899 206.281C120.85 201.68 117.181 200.147 117.181 200.147C117.181 200.147 121.899 193.502 120.326 191.458C118.753 189.413 120.326 175.101 120.326 175.101C120.326 175.101 143.918 169.479 134.481 154.656C125.045 139.833 125.045 132.165 120.326 131.143C115.608 130.121 117.181 119.898 117.181 119.898C117.181 119.898 120.85 110.186 121.899 90.7631Z" fill="#F75270" stroke="#F75270"/>
<path d="M110.227 252.561C110.265 252.557 110.463 252.549 110.715 252.568C110.871 252.58 110.932 252.584 110.999 252.593C111.066 252.603 111.12 252.572 111.17 252.551C111.224 252.528 111.304 252.53 111.358 252.516C111.421 252.501 111.469 252.495 111.622 252.49C111.805 252.483 112.055 252.484 112.046 252.49C111.927 252.563 111.822 252.48 111.757 252.491C111.709 252.5 111.627 252.515 111.512 252.524C111.342 252.538 111.212 252.53 111.146 252.536C110.907 252.556 110.814 252.549 110.745 252.56C110.665 252.574 110.549 252.58 110.494 252.585C110.437 252.591 110.217 252.607 110.089 252.595C110.034 252.59 109.936 252.572 109.831 252.551C109.756 252.536 109.687 252.53 109.431 252.524C109.334 252.522 109.273 252.507 109.017 252.505C108.962 252.505 108.951 252.511 108.951 252.514C108.948 252.58 109.115 252.53 109.288 252.536C109.446 252.541 109.746 252.538 109.908 252.536C110.085 252.534 110.203 252.526 110.364 252.524C110.434 252.523 110.51 252.515 110.614 252.513C110.664 252.512 110.827 252.503 111.063 252.501C111.197 252.5 111.273 252.484 111.415 252.478C111.482 252.475 111.534 252.457 111.584 252.446C111.634 252.434 111.687 252.426 111.743 252.421C111.818 252.413 111.917 252.426 112.003 252.457C112.07 252.481 112.132 252.503 112.226 252.536C112.32 252.568 112.431 252.595 112.544 252.624C112.616 252.642 112.745 252.687 112.915 252.733C112.994 252.754 113.059 252.779 113.192 252.817C113.326 252.855 113.527 252.908 114.32 253.137C115.112 253.365 116.49 253.768 117.22 253.977C117.951 254.186 117.992 254.19 118.025 254.195C118.058 254.201 118.081 254.209 118.116 254.216" stroke="white" stroke-width="2" stroke-linecap="round"/>
<path d="M117.703 253.603C118.002 253.553 118.902 253.452 122.341 253.974C125.199 254.408 130.255 255.54 135.229 256.178C140.203 256.815 144.926 257.014 147.483 257.067C150.697 257.133 151.395 256.818 154.203 256.643C154.641 256.615 152.364 255.815 148.818 255.339C146.324 255.005 142.389 254.715 138.7 254.262C135.011 253.809 131.68 253.263 129.741 252.981C127.801 252.699 127.354 252.699 127.098 252.774C126.393 252.98 126.441 254.052 126.316 255.004C126.186 255.993 126.34 256.765 126.49 257.016C126.791 257.521 127.742 257.318 130.141 257.494C131.535 257.597 133.925 257.52 135.378 257.495C138.09 257.449 139.59 257.27 141.676 257.194C141.961 257.184 141.811 257.119 138.825 256.746C135.84 256.372 130.023 255.676 126.728 255.318C123.434 254.959 122.837 254.959 122.604 254.984C122.371 255.009 122.521 255.058 122.672 255.134C123.347 255.47 124.325 255.911 125.582 256.438C127.041 257.051 129.487 257.617 131.457 258.246C132.975 258.732 133.77 258.674 134.047 258.75C135.629 259.184 129.514 256.669 128.181 256.267C127.987 256.209 129.345 256.212 133.235 256.787C136.319 257.243 141.699 257.71 145.658 257.992C149.618 258.273 152.004 258.273 153.308 258.224C155.097 258.155 155.565 257.372 156.267 256.92C157.829 255.911 159.323 254.564 160.685 253.356C162.083 252.117 163.499 251.144 164.154 250.466C164.631 249.972 161.212 251.587 157.379 252.841C153.944 253.964 151.755 254.255 150.804 254.405C150.296 254.485 149.753 254.655 149.397 254.756C148.889 254.901 151.323 254.959 155.464 254.934C158.127 254.808 158.679 254.759 158.831 254.733C158.833 254.757 158.684 254.857 158.53 254.959" stroke="white" stroke-width="2" stroke-linecap="round"/>
<path d="M154.462 255.712C154.663 256.062 154.764 257.162 154.863 258.117C154.892 258.393 155.161 258.177 155.289 258C155.768 257.334 156.068 256.27 156.244 255.514C156.291 255.317 156.27 255.064 156.195 255.086C154.892 255.454 154.815 257.867 154.764 258.574C154.695 259.524 155.113 256.92 155.515 255.917C155.901 254.955 156.169 254.207 156.195 254.13C156.516 253.168 155.52 256.408 154.816 257.841C154.637 258.207 154.565 258.617 153.942 259.99C153.319 261.363 152.175 263.7 151.536 264.978C150.898 266.257 150.798 266.406 150.696 266.71" stroke="white" stroke-linecap="round"/>
<path d="M160.195 261.05C162.095 260.212 165.049 257.251 175.826 251.751C178.9 250.182 181.151 249.619 184.21 248.247C188.227 246.445 197.195 242.445 209.036 236.628C222.985 229.775 227.739 229.292 230.509 228.431C231.631 228.083 222.948 232.222 206.399 237.604C195.831 241.04 180.413 244.453 171.375 246.817C156.187 250.789 152.582 253.209 151.096 253.425C149.901 253.599 158.231 248.793 169.326 244.034C179.408 239.709 187.702 239.237 192.356 238.814C194.288 238.639 195.333 238.392 194.196 239.542C185.461 248.374 176.118 251.494 167.959 255.738C162.52 258.568 158.721 260.625 157.974 260.523C156.369 260.304 164.808 255.992 177.354 250.083C195.901 241.347 207.012 238.385 204.273 239.542C202.318 240.367 199.438 242.166 192.159 245.441C184.88 248.717 173.348 253.54 166.673 256.444C159.998 259.347 158.53 260.186 158.193 260.199C154.551 260.336 167.146 254.29 177.51 247.529C181.64 244.835 188.026 241.632 201.436 232.67C214.846 223.707 235.186 209.239 246.503 200.737C257.819 192.235 259.497 190.138 261.619 186.752C266.529 178.916 268.85 173.16 268.745 172.309C268.64 172.296 268.431 173.135 268.008 173.881C267.586 174.628 266.956 175.257 265.673 177.176" stroke="white" stroke-linecap="round"/>
<path d="M234.335 28.7585C231.947 40.1099 228.372 56.7779 222.391 75.664C215.607 97.0863 211.893 112.862 210.398 115.551C209.288 117.547 209.486 105.228 209.787 83.2436C209.954 71.0367 207.412 61.7441 203.68 50.9899C200.277 41.1816 196.626 36.2483 195.279 36.0911C193.321 35.8627 194.228 44.5733 193.33 61.9866C192.692 74.3492 193.025 93.9215 192.728 103.553C192.432 113.185 191.839 112.296 191.534 110.06C191.229 107.823 191.229 104.267 190.636 96.3598C190.043 88.4524 188.858 76.3016 186.913 64.115C183.057 39.9414 178.665 25.4895 176.725 20.7119C174.741 15.8243 172.675 11.1206 171.332 8.12111C170.625 6.5412 166.406 20.5682 162.666 41.475C159.18 60.9572 161.584 75.4126 163.227 82.5925C163.86 85.3578 164.574 86.2162 165.472 86.526C172.344 88.8968 181.601 69.8177 192.674 57.2538C201.443 47.3052 212.728 37.784 222.885 29.7149C236.41 18.9702 240.604 17.3891 243.904 17.5283C245.513 17.5961 245.705 20.667 247.344 33.8684C248.866 46.131 249.872 69.8895 249.598 88.7712C249.324 107.653 247.249 120.989 244.106 133.638C238.009 158.174 231.947 170.643 231.641 171.101C231.354 171.532 233.114 168.891 238.022 159.826C242.93 150.76 251.524 134.46 257.285 124.581C263.046 114.703 265.714 111.739 270.347 105.767C281.739 91.0856 288.219 82.633 287.626 84.8691C287.249 86.2917 285.848 87.9944 283.163 93.0594C280.478 98.1244 276.329 106.422 267.227 129.664C258.125 152.906 244.196 190.84 236.428 212.753C228.66 234.665 227.474 239.407 226.715 244.961C225.957 250.516 225.66 256.739 225.355 263.152" stroke="white" stroke-linecap="round"/>
<path d="M129.255 128.306L129.006 128.389" stroke="white" stroke-width="8" stroke-linecap="round"/>
<path d="M125.19 128.472C125.245 128.637 125.466 128.968 125.701 129.3C125.956 129.661 126.158 129.964 126.489 130.296C126.782 130.59 126.959 130.959 127.332 131.374C127.682 131.763 127.926 132.175 128.134 132.576C128.423 133.133 128.563 133.393 128.591 133.517C128.697 133.987 127.818 132.787 127.652 132.455C127.441 132.034 127.072 131.709 126.85 131.377C126.62 131.031 126.216 130.659 125.869 130.367C125.537 130.088 125.275 129.635 124.998 129.289C124.672 128.882 124.5 128.557 124.334 128.156C124.156 127.726 123.782 127.396 123.368 127.173C123.004 126.978 122.62 127.2 122.509 127.337C122.244 127.667 122.811 128.139 123.088 128.471C123.326 128.756 123.475 129.134 123.683 129.466C123.896 129.807 124.193 130.267 124.443 130.641C124.698 131.023 124.885 131.374 125.12 131.72C125.412 132.148 125.632 132.535 125.936 132.95C126.24 133.365 126.406 133.696 126.655 134.056C126.934 134.46 126.959 134.912 127.18 135.342C127.369 135.707 127.622 136.019 127.816 136.447C128.219 137.338 128.59 137.815 128.853 138.327C129.101 138.809 129.364 139.28 129.641 139.806C130.216 140.901 130.471 141.41 130.719 141.949C130.917 142.377 131.299 143.094 131.508 143.581C131.598 143.791 131.743 144.119 131.935 144.574C132.147 145.074 132.488 145.721 133.257 147.342C133.837 148.565 134.902 150.551 135.493 151.663C136.175 152.948 136.661 153.819 137.242 155.007C137.9 156.356 138.489 157.556 138.969 158.628C139.319 159.409 139.97 160.631 140.322 161.403C140.787 162.423 141.004 163.195 141.377 164.023C141.854 165.085 142.193 165.988 142.732 167.645C142.94 168.091 143.052 168.341 143.107 168.59C143.135 168.701 143.162 168.783 143.356 168.951" stroke="white" stroke-width="8" stroke-linecap="round"/>
<path d="M142.625 163.126C142.65 163.274 142.699 163.57 142.847 163.88C143.025 164.252 143.094 164.61 143.157 164.969C143.262 165.567 143.121 166.516 142.985 166.912C142.849 167.306 142.601 167.63 142.415 167.941C142.239 168.235 142.279 167.015 142.241 166.692C142.206 166.39 142.13 165.951 142.117 163.778C142.112 162.854 142.228 162.162 142.266 161.938C142.279 161.858 142.328 162.307 142.34 162.69C142.349 162.953 142.402 164.228 142.39 166.048C142.384 166.94 142.279 167.284 142.044 167.791C141.871 168.167 141.931 166.866 141.981 166.396C142.071 165.55 142.154 165.059 142.192 164.761C142.318 163.759 142.205 162.087 142.13 162.012C141.97 161.851 142.031 162.726 141.969 163.149C141.908 163.568 141.882 163.916 141.821 164.251C141.751 164.631 141.685 165.03 141.586 165.353C141.494 165.653 141.388 165.947 141.227 166.306C141.088 166.615 140.967 166.839 140.905 166.987C140.873 167.064 140.819 167.135 140.793 166.928C140.639 165.661 140.842 164.914 140.904 164.132C140.93 163.801 140.917 163.212 140.917 163.215C140.917 164.537 140.842 164.882 140.769 165.205C140.693 165.533 140.62 165.873 140.607 166.132C140.598 166.322 140.545 165.193 140.521 163.337C140.509 162.422 140.323 162.039 140.187 161.704C140.046 161.355 139.976 161.048 139.877 160.75C139.778 160.453 139.679 160.157 139.642 159.859C139.599 159.521 139.431 159.191 139.296 158.894C139.164 158.604 138.938 158.055 138.739 157.385C138.429 156.344 138.071 155.255 137.946 154.859C137.921 154.735 137.897 154.588 137.884 154.463C137.872 154.338 137.872 154.24 137.872 154.139" stroke="white" stroke-width="8" stroke-linecap="round"/>
<path d="M20.1621 110.574C20.1621 110.718 20.1621 110.862 20.1621 116.19C20.1621 121.518 20.1621 132.025 20.378 138.878C20.5939 145.73 21.0257 148.609 21.3921 151.675C21.7585 154.741 22.0464 157.908 22.9864 162.634C23.9263 167.36 25.5096 173.549 26.6131 177.457C28.8538 185.392 30.3337 188.78 31.2082 191.402C32.303 194.683 33.6748 197.216 34.6976 200.341C35.7307 203.497 37.6004 205.939 40.8586 210.792C42.64 213.445 46.2628 217.498 49.9136 221.232C53.5643 224.965 57.3067 228.132 68.1587 235.017C79.0108 241.902 96.859 252.409 106.413 257.966C116.631 263.909 118.149 264.683 119.887 265.915C124.217 268.985 127.74 270.493 130.069 271.664C130.652 271.957 131.23 272.386 131.31 272.249C132.551 270.136 127.33 268.478 123.695 266.731C122.809 266.306 122.096 265.861 117.983 264.055C113.87 262.249 106.385 259.083 102.169 257.38C95.1075 254.526 91.2673 252.627 89.3045 251.681C84.9341 249.573 80.5112 246.809 78.182 245.068C76.1398 243.543 72.5292 241.732 69.0965 239.616C66.1074 237.774 63.5004 235.617 61.6052 234.452C59.8165 233.353 56.9665 231.551 54.7725 229.296C50.9315 225.349 47.0741 222.243 45.1026 220.497C43.5182 219.093 41.9796 217.158 39.9426 214.9C38.3038 213.085 36.4576 210.615 33.7686 206.914C29.6467 201.241 28.3099 198.551 27.0733 194.843C25.9886 191.591 25.3962 189.391 24.5282 185.611C23.6501 181.788 22.6396 179.211 21.909 176.881C21.2322 174.724 20.7466 172.956 20.1643 170.775C19.3464 167.712 18.4174 163.944 17.9834 161.325C17.6368 159.233 16.821 156.678 16.6008 149.928C16.4976 146.766 15.9487 143.593 15.7284 140.319C15.5265 137.318 15.0763 134.145 15 124.135C15.072 121.923 15.2159 121.06 15.506 120.183C15.796 119.306 16.2278 118.443 16.6727 117.553" stroke="white" stroke-width="8" stroke-linecap="round"/>
<path d="M251.771 73.4993C252.059 73.7872 252.207 76.8143 252.063 82.3275C251.934 87.2821 250.183 94.0998 247.215 103.307C245.656 108.144 242.951 112.947 239.82 118.131C236.688 123.315 232.945 128.64 222.453 141.172C211.961 153.703 194.833 173.279 185.721 184.155C175.586 196.252 174.864 199.109 173.704 201.281C173.12 202.589 172.544 204.317 172.175 205.422C171.807 206.528 171.663 206.96 171.515 207.841" stroke="white" stroke-width="8" stroke-linecap="round"/>
</svg>
